<?xml version="1.0" standalone="no"?><!DOCTYPE svg PUBLIC "-//W3C//DTD SVG 1.1//EN" "http://www.w3.org/Graphics/SVG/1.1/DTD/svg11.dtd"><svg t="1784690151823" class="icon" viewBox="0 0 1024 1024" version="1.1" xmlns="http://www.w3.org/2000/svg" p-id="14290" xmlns:xlink="http://www.w3.org/1999/xlink" width="200" height="200"><path d="M544.2 873.8H310v-61.4h32.2c14.4 0 26-11.6 26-26s-11.6-26-26-26H310v-12c0-14.4-11.6-26-26-26s-26 11.6-26 26v12h-34.4V335.4H258v3.6c0 14.4 11.6 26 26 26s26-11.6 26-26v-3.6h32.2c14.4 0 26-11.6 26-26s-11.6-26-26-26H310v-65h347.8v65h-8.2c-14.4 0-26 11.6-26 26s11.6 26 26 26h8.2v3.6c0 14.4 11.6 26 26 26s26-11.6 26-26v-3.6h38.4v159.2c0 16.6 13.4 30 30 30s30-13.4 30-30V188.4c0-16.6-13.4-30-30-30H223.6v-50c0-8.8-3.8-17-10.4-22.8-6.6-5.8-15.4-8.2-24-7C139.4 86.2 83.2 126 56 173.2c-2.6 4.6-4 9.8-4 15v715.4c0 1 0 2 0.2 2.8 0 0.4 0 0.6 0.2 1 0 0.6 0.2 1.2 0.2 1.8 0 0.4 0.2 0.8 0.2 1.2 0.2 0.6 0.2 1 0.4 1.6 0.2 0.4 0.2 0.8 0.4 1.2 0.2 0.4 0.4 1 0.6 1.4 0.2 0.4 0.4 0.8 0.4 1.2 0.2 0.4 0.4 1 0.6 1.4 0.2 0.4 0.4 0.6 0.6 1 0.4 0.6 0.8 1.4 1.2 2 0.2 0.2 0.4 0.4 0.4 0.6 0.4 0.6 0.8 1.2 1.4 1.8 0.2 0.2 0.4 0.4 0.6 0.8 0.4 0.4 0.8 0.8 1.2 1.4l0.8 0.8 1.2 1.2c0.2 0.2 0.6 0.4 0.8 0.6 0.4 0.4 0.8 0.6 1.4 1 0.2 0.2 0.6 0.4 0.8 0.6 0.4 0.4 1 0.6 1.4 0.8 0.4 0.2 0.6 0.4 1 0.6 0.4 0.2 1 0.4 1.6 0.8 0.4 0.2 0.6 0.4 1 0.4 0.8 0.4 1.6 0.6 2.4 1 0.4 0.2 0.8 0.2 1.2 0.4 0.4 0.2 0.8 0.2 1.2 0.4h0.2c0.8 0.2 1.6 0.4 2.4 0.4 0.2 0 0.4 0 0.8 0.2 0.8 0 1.6 0.2 2.4 0.2h463.4c16.6 0 30-13.4 30-30s-13.8-30.4-30.4-30.4zM258 812.4v61.4H140c12.8-9.8 30.6-17 57.2-20.2 15-1.8 26.4-14.6 26.4-29.8v-11.4H258z m490.2-529h-38.4v-65h38.4v65zM258 218.4v65h-34.4v-65H258zM111.8 197c12.4-18.4 31.8-35.4 51.8-46.4v648.2c-21 5-37.8 12.6-51.8 21.8V197z" p-id="14291"></path><path d="M550.2 283.4h-108.6c-14.4 0-26 11.6-26 26s11.6 26 26 26h108.6c14.4 0 26-11.6 26-26s-11.6-26-26-26zM550.2 760.4h-108.6c-14.4 0-26 11.6-26 26s11.6 26 26 26h108.6c14.4 0 26-11.6 26-26s-11.6-26-26-26zM310 411.4c0-14.4-11.6-26-26-26s-26 11.6-26 26v87.2c0 14.4 11.6 26 26 26s26-11.6 26-26v-87.2zM683.8 385.4c-14.4 0-26 11.6-26 26v87.2c0 14.4 11.6 26 26 26s26-11.6 26-26v-87.2c0-14.4-11.6-26-26-26zM284 555.2c-14.4 0-26 11.6-26 26v87.2c0 14.4 11.6 26 26 26s26-11.6 26-26v-87.2c0-14.4-11.6-26-26-26zM932.2 513.2l-36-25.8c-8.6-6.2-20.6-4.2-26.8 4.4l-29.6 41.2 67.2 48.2 29.6-41.2c6.2-8.6 4.2-20.6-4.4-26.8zM631.4 823.6l-16.6 71.4c-3.4 14.8 8.6 23.4 21.6 15.4l62.2-38.6 194.4-271.2-67.2-48.2-194.4 271.2z" p-id="14292"></path></svg>