<svg class="icon" style="width: 1em;height: 1em;vertical-align: middle;fill: currentColor;overflow: hidden;" viewBox="0 0 1024 1024" version="1.1" xmlns="http://www.w3.org/2000/svg"><path d="M901.632 926.72c0 12.8-5.12 25.088-14.336 34.304-9.216 9.216-21.504 14.336-34.304 14.336H170.496c-12.8 0-25.6-5.12-34.304-14.336-9.216-9.216-14.336-21.504-14.336-34.304V48.64c0-12.8 5.12-25.6 14.336-34.304C144.896 5.12 157.696 0 170.496 0h418.816c12.8 0 25.6 5.12 34.816 14.336l263.68 263.68c9.216 9.216 14.336 21.504 14.336 34.816V926.72h-0.512z" fill="#EBECF0" /><path d="M901.632 926.72v48.64c0 12.8-5.12 25.6-14.336 34.304-9.216 9.216-21.504 14.336-34.304 14.336H170.496c-27.136 0-48.64-22.016-48.64-48.64v-48.64c0 12.8 5.12 25.088 14.336 34.304 9.216 9.216 21.504 14.336 34.304 14.336h682.496c27.136 0 48.64-22.016 48.64-48.64z" fill="#C1C7D0" /><path d="M24.064 536.576h975.36v243.712c0 27.136-22.016 48.64-48.64 48.64H73.216c-12.8 0-25.6-5.12-34.304-14.336-9.216-9.216-14.336-21.504-14.336-34.816v-243.2h-0.512z" fill="#E36F2D" /><path d="M121.856 536.576v-97.792l-97.792 97.792h97.792z m779.776 0l1.024-97.792 97.28 97.792h-98.304z" fill="#B7521F" /><path d="M901.632 312.832v6.656h-263.68c-27.136 0-48.64-22.016-48.64-48.64V0c12.8 0 25.6 5.12 34.816 14.336l264.192 263.68c8.704 9.216 13.824 21.504 13.312 34.816z" fill="#C1C7D0" /><path d="M253.552 715.001l36.072-3.507c2.171 12.107 6.575 21 13.213 26.677 6.638 5.678 15.593 8.517 26.866 8.517 11.94 0 20.937-2.526 26.99-7.577 6.054-5.052 9.081-10.959 9.081-17.723 0-4.342-1.273-8.036-3.82-11.084-2.547-3.048-6.993-5.699-13.339-7.953-4.342-1.503-14.236-4.175-29.684-8.016-19.872-4.927-33.816-10.98-41.832-18.161-11.272-10.103-16.908-22.419-16.908-36.948 0-9.352 2.651-18.098 7.953-26.239 5.302-8.141 12.942-14.341 22.92-18.599 9.978-4.259 22.023-6.388 36.134-6.388 23.045 0 40.392 5.052 52.04 15.155 11.648 10.103 17.764 23.588 18.349 40.455l-37.073 1.628c-1.587-9.435-4.99-16.22-10.208-20.353-5.219-4.133-13.047-6.199-23.484-6.199-10.771 0-19.205 2.212-25.3 6.638-3.924 2.839-5.887 6.638-5.887 11.397 0 4.342 1.837 8.058 5.511 11.147 4.676 3.925 16.032 8.016 34.068 12.274 18.035 4.259 31.374 8.663 40.016 13.214s15.405 10.771 20.29 18.662c4.885 7.89 7.327 17.639 7.327 29.245 0 10.521-2.922 20.374-8.767 29.558-5.845 9.185-14.111 16.011-24.799 20.478-10.688 4.467-24.006 6.701-39.954 6.701-23.213 0-41.039-5.365-53.481-16.094-12.441-10.73-19.872-26.365-22.294-46.905z m227.324 59.743l-65.629-183.613h40.204l46.467 135.893 44.963-135.893h39.328l-65.755 183.613z m209.664-67.509v-30.936h79.908v73.145c-7.766 7.514-19.017 14.132-33.755 19.851-14.737 5.72-29.662 8.58-44.775 8.58-19.205 0-35.946-4.029-50.225-12.087-14.278-8.057-25.007-19.58-32.188-34.568-7.181-14.988-10.771-31.291-10.771-48.909 0-19.121 4.008-36.113 12.023-50.975 8.016-14.863 19.748-26.261 35.195-34.193 11.773-6.095 26.427-9.143 43.962-9.143 22.795 0 40.601 4.78 53.418 14.341 12.817 9.56 21.062 22.774 24.736 39.641l-36.823 6.888c-2.588-9.018-7.452-16.136-14.591-21.355-7.139-5.218-16.053-7.827-26.74-7.827-16.199 0-29.079 5.135-38.639 15.405-9.561 10.27-14.341 25.509-14.341 45.715 0 21.793 4.843 38.138 14.529 49.034 9.686 10.897 22.377 16.345 38.075 16.345 7.765 0 15.551-1.524 23.359-4.571 7.807-3.048 14.507-6.743 20.102-11.085v-23.296z" fill="#FFFFFF" /></svg>